<?xml version="1.0" encoding="UTF-8"?>
<svg xmlns="http://www.w3.org/2000/svg" xmlns:xlink="http://www.w3.org/1999/xlink" width="198.425pt" height="113.386pt" viewBox="0 0 198.425 113.386">
<defs>
<g>
<g id="glyph-0-0">
<path d="M 2.9375 -6.375 C 2.9375 -6.625 2.9375 -6.640625 2.703125 -6.640625 C 2.078125 -6 1.203125 -6 0.890625 -6 L 0.890625 -5.6875 C 1.09375 -5.6875 1.671875 -5.6875 2.1875 -5.953125 L 2.1875 -0.78125 C 2.1875 -0.421875 2.15625 -0.3125 1.265625 -0.3125 L 0.953125 -0.3125 L 0.953125 0 C 1.296875 -0.03125 2.15625 -0.03125 2.5625 -0.03125 C 2.953125 -0.03125 3.828125 -0.03125 4.171875 0 L 4.171875 -0.3125 L 3.859375 -0.3125 C 2.953125 -0.3125 2.9375 -0.421875 2.9375 -0.78125 Z M 2.9375 -6.375 "/>
</g>
<g id="glyph-0-1">
<path d="M 1.265625 -0.765625 L 2.328125 -1.796875 C 3.875 -3.171875 4.46875 -3.703125 4.46875 -4.703125 C 4.46875 -5.84375 3.578125 -6.640625 2.359375 -6.640625 C 1.234375 -6.640625 0.5 -5.71875 0.5 -4.828125 C 0.5 -4.28125 1 -4.28125 1.03125 -4.28125 C 1.203125 -4.28125 1.546875 -4.390625 1.546875 -4.8125 C 1.546875 -5.0625 1.359375 -5.328125 1.015625 -5.328125 C 0.9375 -5.328125 0.921875 -5.328125 0.890625 -5.3125 C 1.109375 -5.96875 1.65625 -6.328125 2.234375 -6.328125 C 3.140625 -6.328125 3.5625 -5.515625 3.5625 -4.703125 C 3.5625 -3.90625 3.078125 -3.125 2.515625 -2.5 L 0.609375 -0.375 C 0.5 -0.265625 0.5 -0.234375 0.5 0 L 4.203125 0 L 4.46875 -1.734375 L 4.234375 -1.734375 C 4.171875 -1.4375 4.109375 -1 4 -0.84375 C 3.9375 -0.765625 3.28125 -0.765625 3.0625 -0.765625 Z M 1.265625 -0.765625 "/>
</g>
<g id="glyph-0-2">
<path d="M 2.890625 -3.515625 C 3.703125 -3.78125 4.28125 -4.46875 4.28125 -5.265625 C 4.28125 -6.078125 3.40625 -6.640625 2.453125 -6.640625 C 1.453125 -6.640625 0.6875 -6.046875 0.6875 -5.28125 C 0.6875 -4.953125 0.90625 -4.765625 1.203125 -4.765625 C 1.5 -4.765625 1.703125 -4.984375 1.703125 -5.28125 C 1.703125 -5.765625 1.234375 -5.765625 1.09375 -5.765625 C 1.390625 -6.265625 2.046875 -6.390625 2.40625 -6.390625 C 2.828125 -6.390625 3.375 -6.171875 3.375 -5.28125 C 3.375 -5.15625 3.34375 -4.578125 3.09375 -4.140625 C 2.796875 -3.65625 2.453125 -3.625 2.203125 -3.625 C 2.125 -3.609375 1.890625 -3.59375 1.8125 -3.59375 C 1.734375 -3.578125 1.671875 -3.5625 1.671875 -3.46875 C 1.671875 -3.359375 1.734375 -3.359375 1.90625 -3.359375 L 2.34375 -3.359375 C 3.15625 -3.359375 3.53125 -2.6875 3.53125 -1.703125 C 3.53125 -0.34375 2.84375 -0.0625 2.40625 -0.0625 C 1.96875 -0.0625 1.21875 -0.234375 0.875 -0.8125 C 1.21875 -0.765625 1.53125 -0.984375 1.53125 -1.359375 C 1.53125 -1.71875 1.265625 -1.921875 0.984375 -1.921875 C 0.734375 -1.921875 0.421875 -1.78125 0.421875 -1.34375 C 0.421875 -0.4375 1.34375 0.21875 2.4375 0.21875 C 3.65625 0.21875 4.5625 -0.6875 4.5625 -1.703125 C 4.5625 -2.515625 3.921875 -3.296875 2.890625 -3.515625 Z M 2.890625 -3.515625 "/>
</g>
<g id="glyph-0-3">
<path d="M 2.9375 -1.640625 L 2.9375 -0.78125 C 2.9375 -0.421875 2.90625 -0.3125 2.171875 -0.3125 L 1.96875 -0.3125 L 1.96875 0 C 2.375 -0.03125 2.890625 -0.03125 3.3125 -0.03125 C 3.734375 -0.03125 4.25 -0.03125 4.671875 0 L 4.671875 -0.3125 L 4.453125 -0.3125 C 3.71875 -0.3125 3.703125 -0.421875 3.703125 -0.78125 L 3.703125 -1.640625 L 4.6875 -1.640625 L 4.6875 -1.953125 L 3.703125 -1.953125 L 3.703125 -6.484375 C 3.703125 -6.6875 3.703125 -6.75 3.53125 -6.75 C 3.453125 -6.75 3.421875 -6.75 3.34375 -6.625 L 0.28125 -1.953125 L 0.28125 -1.640625 Z M 2.984375 -1.953125 L 0.5625 -1.953125 L 2.984375 -5.671875 Z M 2.984375 -1.953125 "/>
</g>
<g id="glyph-0-4">
<path d="M 4.46875 -2 C 4.46875 -3.1875 3.65625 -4.1875 2.578125 -4.1875 C 2.109375 -4.1875 1.671875 -4.03125 1.3125 -3.671875 L 1.3125 -5.625 C 1.515625 -5.5625 1.84375 -5.5 2.15625 -5.5 C 3.390625 -5.5 4.09375 -6.40625 4.09375 -6.53125 C 4.09375 -6.59375 4.0625 -6.640625 3.984375 -6.640625 C 3.984375 -6.640625 3.953125 -6.640625 3.90625 -6.609375 C 3.703125 -6.515625 3.21875 -6.3125 2.546875 -6.3125 C 2.15625 -6.3125 1.6875 -6.390625 1.21875 -6.59375 C 1.140625 -6.625 1.125 -6.625 1.109375 -6.625 C 1 -6.625 1 -6.546875 1 -6.390625 L 1 -3.4375 C 1 -3.265625 1 -3.1875 1.140625 -3.1875 C 1.21875 -3.1875 1.234375 -3.203125 1.28125 -3.265625 C 1.390625 -3.421875 1.75 -3.96875 2.5625 -3.96875 C 3.078125 -3.96875 3.328125 -3.515625 3.40625 -3.328125 C 3.5625 -2.953125 3.59375 -2.578125 3.59375 -2.078125 C 3.59375 -1.71875 3.59375 -1.125 3.34375 -0.703125 C 3.109375 -0.3125 2.734375 -0.0625 2.28125 -0.0625 C 1.5625 -0.0625 0.984375 -0.59375 0.8125 -1.171875 C 0.84375 -1.171875 0.875 -1.15625 0.984375 -1.15625 C 1.3125 -1.15625 1.484375 -1.40625 1.484375 -1.640625 C 1.484375 -1.890625 1.3125 -2.140625 0.984375 -2.140625 C 0.84375 -2.140625 0.5 -2.0625 0.5 -1.609375 C 0.5 -0.75 1.1875 0.21875 2.296875 0.21875 C 3.453125 0.21875 4.46875 -0.734375 4.46875 -2 Z M 4.46875 -2 "/>
</g>
</g>
<clipPath id="clip-0">
<path clip-rule="nonzero" d="M 82 82 L 117 82 L 117 113.386719 L 82 113.386719 Z M 82 82 "/>
</clipPath>
</defs>
<path fill-rule="nonzero" fill="rgb(0%, 0%, 0%)" fill-opacity="0.5" d="M 0 113.386719 L 0 0 L 198.425781 0 L 198.425781 113.386719 Z M 0 113.386719 "/>
<path fill="none" stroke-width="0.3985" stroke-linecap="butt" stroke-linejoin="miter" stroke="rgb(0%, 0%, 0%)" stroke-opacity="1" stroke-miterlimit="10" d="M -5.669094 42.521594 L -5.669094 90.709094 L 99.213719 90.709094 L 99.213719 42.521594 Z M -5.669094 42.521594 " transform="matrix(1, 0, 0, -1, 14.173, 99.213)"/>
<path fill-rule="nonzero" fill="rgb(64.99939%, 64.99939%, 64.99939%)" fill-opacity="1" stroke-width="0.3985" stroke-linecap="butt" stroke-linejoin="miter" stroke="rgb(0%, 0%, 0%)" stroke-opacity="1" stroke-miterlimit="10" d="M -5.669094 -0.00184375 L 5.67075 -0.00184375 L 5.67075 85.041125 L -5.669094 85.041125 Z M -5.669094 -0.00184375 " transform="matrix(1, 0, 0, -1, 14.173, 99.213)"/>
<path fill-rule="nonzero" fill="rgb(64.99939%, 64.99939%, 64.99939%)" fill-opacity="1" stroke-width="0.3985" stroke-linecap="butt" stroke-linejoin="miter" stroke="rgb(0%, 0%, 0%)" stroke-opacity="1" stroke-miterlimit="10" d="M 164.412937 -0.00184375 L 175.748875 -0.00184375 L 175.748875 85.041125 L 164.412937 85.041125 Z M 164.412937 -0.00184375 " transform="matrix(1, 0, 0, -1, 14.173, 99.213)"/>
<path fill-rule="nonzero" fill="rgb(89.99939%, 89.99939%, 89.99939%)" fill-opacity="1" stroke-width="0.3985" stroke-linecap="butt" stroke-linejoin="miter" stroke="rgb(0%, 0%, 0%)" stroke-opacity="1" stroke-miterlimit="10" d="M 53.85825 70.865344 C 53.85825 77.130969 48.784031 82.205187 42.518406 82.205187 C 36.256687 82.205187 31.182469 77.130969 31.182469 70.865344 C 31.182469 64.603625 36.256687 59.529406 42.518406 59.529406 C 48.784031 59.529406 53.85825 64.603625 53.85825 70.865344 Z M 53.85825 70.865344 " transform="matrix(1, 0, 0, -1, 14.173, 99.213)"/>
<g fill="rgb(0%, 0%, 0%)" fill-opacity="1">
<use xlink:href="#glyph-0-0" x="54.202" y="31.557"/>
</g>
<path fill-rule="nonzero" fill="rgb(89.99939%, 89.99939%, 89.99939%)" fill-opacity="1" stroke-width="0.3985" stroke-linecap="butt" stroke-linejoin="miter" stroke="rgb(0%, 0%, 0%)" stroke-opacity="1" stroke-miterlimit="10" d="M 96.377781 56.693469 C 96.377781 62.955187 91.303562 68.033312 85.041844 68.033312 C 78.776219 68.033312 73.702 62.955187 73.702 56.693469 C 73.702 50.43175 78.776219 45.353625 85.041844 45.353625 C 91.303562 45.353625 96.377781 50.43175 96.377781 56.693469 Z M 96.377781 56.693469 " transform="matrix(1, 0, 0, -1, 14.173, 99.213)"/>
<g fill="rgb(0%, 0%, 0%)" fill-opacity="1">
<use xlink:href="#glyph-0-1" x="96.722" y="45.73"/>
</g>
<path fill-rule="nonzero" fill="rgb(89.99939%, 89.99939%, 89.99939%)" fill-opacity="1" d="M 110.550781 99.214844 C 110.550781 92.949219 105.476562 87.875 99.214844 87.875 C 92.949219 87.875 87.875 92.949219 87.875 99.214844 C 87.875 105.476562 92.949219 110.550781 99.214844 110.550781 C 105.476562 110.550781 110.550781 105.476562 110.550781 99.214844 Z M 110.550781 99.214844 "/>
<g clip-path="url(#clip-0)">
<path fill="none" stroke-width="0.3985" stroke-linecap="butt" stroke-linejoin="miter" stroke="rgb(0%, 0%, 0%)" stroke-opacity="1" stroke-miterlimit="10" d="M 96.377781 -0.00184375 C 96.377781 6.263781 91.303562 11.338 85.041844 11.338 C 78.776219 11.338 73.702 6.263781 73.702 -0.00184375 C 73.702 -6.263563 78.776219 -11.337781 85.041844 -11.337781 C 91.303562 -11.337781 96.377781 -6.263563 96.377781 -0.00184375 Z M 96.377781 -0.00184375 " transform="matrix(1, 0, 0, -1, 14.173, 99.213)"/>
</g>
<g fill="rgb(0%, 0%, 0%)" fill-opacity="1">
<use xlink:href="#glyph-0-2" x="96.722" y="102.423"/>
</g>
<path fill-rule="nonzero" fill="rgb(89.99939%, 89.99939%, 89.99939%)" fill-opacity="1" stroke-width="0.3985" stroke-linecap="butt" stroke-linejoin="miter" stroke="rgb(0%, 0%, 0%)" stroke-opacity="1" stroke-miterlimit="10" d="M 65.198094 22.677844 C 65.198094 28.939562 60.119969 34.017687 53.85825 34.017687 C 47.596531 34.017687 42.518406 28.939562 42.518406 22.677844 C 42.518406 16.416125 47.596531 11.338 53.85825 11.338 C 60.119969 11.338 65.198094 16.416125 65.198094 22.677844 Z M 65.198094 22.677844 " transform="matrix(1, 0, 0, -1, 14.173, 99.213)"/>
<g fill="rgb(0%, 0%, 0%)" fill-opacity="1">
<use xlink:href="#glyph-0-3" x="65.541" y="79.746"/>
</g>
<path fill-rule="nonzero" fill="rgb(89.99939%, 89.99939%, 89.99939%)" fill-opacity="1" stroke-width="0.3985" stroke-linecap="butt" stroke-linejoin="miter" stroke="rgb(0%, 0%, 0%)" stroke-opacity="1" stroke-miterlimit="10" d="M 138.901219 42.521594 C 138.901219 48.783312 133.823094 53.857531 127.561375 53.857531 C 121.299656 53.857531 116.221531 48.783312 116.221531 42.521594 C 116.221531 36.255969 121.299656 31.18175 127.561375 31.18175 C 133.823094 31.18175 138.901219 36.255969 138.901219 42.521594 Z M 138.901219 42.521594 " transform="matrix(1, 0, 0, -1, 14.173, 99.213)"/>
<g fill="rgb(0%, 0%, 0%)" fill-opacity="1">
<use xlink:href="#glyph-0-4" x="139.242" y="59.903"/>
</g>
<path fill="none" stroke-width="0.79701" stroke-linecap="butt" stroke-linejoin="miter" stroke="rgb(0%, 0%, 0%)" stroke-opacity="1" stroke-miterlimit="10" d="M 5.869969 70.865344 L 10.850437 70.865344 C 11.182469 72.5255 12.311375 73.857531 13.6395 73.857531 C 14.967625 73.857531 16.096531 72.5255 16.428562 70.865344 C 16.760594 69.209094 16.29575 67.877062 15.631687 67.877062 C 14.967625 67.877062 14.502781 69.209094 14.834812 70.865344 C 15.166844 72.5255 16.29575 73.857531 17.623875 73.857531 C 18.952 73.857531 20.080906 72.5255 20.412937 70.865344 C 20.744969 69.209094 20.280125 67.877062 19.616062 67.877062 C 18.952 67.877062 18.487156 69.209094 18.819187 70.865344 C 19.151219 72.5255 20.284031 73.857531 21.60825 73.857531 C 22.936375 73.857531 24.065281 72.5255 24.397312 70.865344 L 30.98325 70.865344 " transform="matrix(1, 0, 0, -1, 14.173, 99.213)"/>
<path fill="none" stroke-width="0.79701" stroke-linecap="butt" stroke-linejoin="miter" stroke="rgb(0%, 0%, 0%)" stroke-opacity="1" stroke-miterlimit="10" d="M 5.869969 22.677844 L 10.850437 22.677844 C 11.182469 24.338 12.311375 25.666125 13.6395 25.666125 C 14.967625 25.666125 16.096531 24.338 16.428562 22.677844 C 16.760594 21.017687 16.29575 19.689562 15.631687 19.689562 C 14.967625 19.689562 14.502781 21.017687 14.834812 22.677844 C 15.166844 24.338 16.29575 25.666125 17.623875 25.666125 C 18.952 25.666125 20.080906 24.338 20.412937 22.677844 C 20.744969 21.017687 20.280125 19.689562 19.616062 19.689562 C 18.952 19.689562 18.487156 21.017687 18.819187 22.677844 C 19.151219 24.338 20.284031 25.666125 21.60825 25.666125 C 22.936375 25.666125 24.065281 24.338 24.397312 22.677844 C 24.729344 21.017687 24.2645 19.689562 23.600437 19.689562 C 22.940281 19.689562 22.471531 21.017687 22.803562 22.677844 C 23.135594 24.338 24.268406 25.666125 25.596531 25.666125 C 26.92075 25.666125 28.053562 24.338 28.385594 22.677844 C 28.717625 21.017687 28.248875 19.689562 27.588719 19.689562 C 26.924656 19.689562 26.459812 21.017687 26.791844 22.677844 C 27.123875 24.338 28.252781 25.666125 29.580906 25.666125 C 30.909031 25.666125 32.037937 24.338 32.369969 22.677844 C 32.702 21.017687 32.237156 19.689562 31.573094 19.689562 C 30.909031 19.689562 30.444187 21.017687 30.776219 22.677844 C 31.10825 24.338 32.237156 25.666125 33.565281 25.666125 C 34.893406 25.666125 36.022312 24.338 36.354344 22.677844 L 42.319187 22.677844 " transform="matrix(1, 0, 0, -1, 14.173, 99.213)"/>
<path fill="none" stroke-width="0.79701" stroke-linecap="butt" stroke-linejoin="miter" stroke="rgb(0%, 0%, 0%)" stroke-opacity="1" stroke-miterlimit="10" d="M 164.213719 42.521594 L 159.229344 42.521594 C 158.897312 40.861437 157.768406 39.533312 156.440281 39.533312 C 155.112156 39.533312 153.98325 40.861437 153.651219 42.521594 C 153.319187 44.177844 153.784031 45.509875 154.448094 45.509875 C 155.112156 45.509875 155.577 44.177844 155.244969 42.521594 C 154.912937 40.861437 153.784031 39.533312 152.455906 39.533312 C 151.127781 39.533312 149.998875 40.861437 149.666844 42.521594 C 149.334812 44.177844 149.799656 45.509875 150.463719 45.509875 C 151.127781 45.509875 151.592625 44.177844 151.260594 42.521594 C 150.928562 40.861437 149.799656 39.533312 148.471531 39.533312 C 147.143406 39.533312 146.0145 40.861437 145.682469 42.521594 L 139.100437 42.521594 " transform="matrix(1, 0, 0, -1, 14.173, 99.213)"/>
<path fill="none" stroke-width="0.79701" stroke-linecap="butt" stroke-linejoin="miter" stroke="rgb(0%, 0%, 0%)" stroke-opacity="1" stroke-miterlimit="10" d="M 53.463719 67.216906 L 58.190281 65.642687 C 59.030125 67.111437 60.522312 68.017687 61.784031 67.595812 C 63.041844 67.177844 63.694187 65.55675 63.48325 63.880969 C 63.272312 62.201281 62.412937 61.088 61.784031 61.295031 C 61.155125 61.505969 61.131687 62.916125 61.971531 64.384875 C 62.811375 65.853625 64.303562 66.755969 65.561375 66.338 C 66.823094 65.916125 67.475437 64.298937 67.2645 62.61925 L 74.096531 60.341906 " transform="matrix(1, 0, 0, -1, 14.173, 99.213)"/>
<path fill="none" stroke-width="0.79701" stroke-linecap="butt" stroke-linejoin="miter" stroke="rgb(0%, 0%, 0%)" stroke-opacity="1" stroke-miterlimit="10" d="M 85.041844 45.154406 L 85.041844 40.173937 C 86.698094 39.841906 88.030125 38.713 88.030125 37.384875 C 88.030125 36.05675 86.698094 34.927844 85.041844 34.595812 C 83.381687 34.263781 82.049656 34.728625 82.049656 35.392687 C 82.049656 36.05675 83.381687 36.521594 85.041844 36.189562 C 86.698094 35.857531 88.030125 34.728625 88.030125 33.4005 C 88.030125 32.072375 86.698094 30.943469 85.041844 30.611437 C 83.381687 30.279406 82.049656 30.74425 82.049656 31.408312 C 82.049656 32.068469 83.381687 32.537219 85.041844 32.205187 C 86.698094 31.873156 88.030125 30.740344 88.030125 29.416125 C 88.030125 28.088 86.698094 26.955187 85.041844 26.623156 C 83.381687 26.291125 82.049656 26.759875 82.049656 27.423937 C 82.049656 28.084094 83.381687 28.552844 85.041844 28.220812 C 86.698094 27.888781 88.030125 26.755969 88.030125 25.427844 C 88.030125 24.103625 86.698094 22.970812 85.041844 22.638781 C 83.381687 22.30675 82.049656 22.7755 82.049656 23.435656 C 82.049656 24.099719 83.381687 24.564562 85.041844 24.232531 C 86.698094 23.9005 88.030125 22.771594 88.030125 21.443469 C 88.030125 20.115344 86.698094 18.986437 85.041844 18.654406 L 85.041844 11.537219 " transform="matrix(1, 0, 0, -1, 14.173, 99.213)"/>
<path fill="none" stroke-width="0.79701" stroke-linecap="butt" stroke-linejoin="miter" stroke="rgb(0%, 0%, 0%)" stroke-opacity="1" stroke-miterlimit="10" d="M 77.244969 48.189562 L 73.877781 44.517687 C 74.877781 43.1505 75.092625 41.420031 74.198094 40.439562 C 73.299656 39.463 71.557469 39.529406 70.10825 40.404406 C 68.662937 41.279406 67.994969 42.521594 68.444187 43.009875 C 68.893406 43.502062 70.186375 42.943469 71.186375 41.580187 C 72.182469 40.213 72.401219 38.482531 71.502781 37.502062 C 70.60825 36.5255 68.862156 36.591906 67.416844 37.466906 L 61.655125 31.18175 " transform="matrix(1, 0, 0, -1, 14.173, 99.213)"/>
<path fill="none" stroke-width="0.79701" stroke-linecap="butt" stroke-linejoin="miter" stroke="rgb(0%, 0%, 0%)" stroke-opacity="1" stroke-miterlimit="10" d="M 45.162937 59.634875 L 46.303562 54.787219 C 47.994969 54.845812 49.54575 54.048937 49.850437 52.755969 C 50.155125 51.463 49.119969 50.060656 47.580906 49.357531 C 46.041844 48.654406 44.6395 48.802844 44.491062 49.447375 C 44.338719 50.095812 45.526219 50.853625 47.217625 50.908312 C 48.905125 50.966906 50.459812 50.170031 50.7645 48.877062 C 51.069187 47.584094 50.034031 46.18175 48.494969 45.478625 C 46.955906 44.7755 45.553562 44.923937 45.401219 45.568469 C 45.248875 46.213 46.436375 46.974719 48.127781 47.029406 C 49.819187 47.088 51.373875 46.291125 51.678562 44.998156 C 51.979344 43.705187 50.944187 42.302844 49.405125 41.599719 L 51.217625 33.908312 " transform="matrix(1, 0, 0, -1, 14.173, 99.213)"/>
<path fill="none" stroke-width="0.79701" stroke-linecap="butt" stroke-linejoin="miter" stroke="rgb(0%, 0%, 0%)" stroke-opacity="1" stroke-miterlimit="10" d="M 95.987156 53.045031 L 100.709812 51.470812 C 101.549656 52.939562 103.041844 53.841906 104.303562 53.423937 C 105.561375 53.002062 106.213719 51.384875 106.002781 49.705187 C 105.79575 48.0255 104.932469 46.912219 104.303562 47.123156 C 103.674656 47.334094 103.651219 48.740344 104.491062 50.209094 C 105.330906 51.677844 106.823094 52.584094 108.084812 52.162219 C 109.342625 51.74425 109.994969 50.123156 109.784031 48.447375 L 116.616062 46.170031 " transform="matrix(1, 0, 0, -1, 14.173, 99.213)"/>
</svg>
